<svg width="478" height="547" viewBox="0 0 478 547" fill="none" xmlns="http://www.w3.org/2000/svg">
<ellipse cx="232.5" cy="69.5" rx="68.5" ry="69.5" fill="#FED195"/>
<ellipse cx="399" cy="81.5" rx="58" ry="57.5" fill="#FED195"/>
<path d="M333 186C329 179 222 136.5 141 184C141 184 147.288 341.923 150.931 352.78C154.575 363.636 161.723 365.707 180.724 364.475L189.237 531.763C189.761 536.271 193.493 540.407 193.493 540.407C193.493 540.407 197.786 544.505 202.005 546H237.473H273.414C273.414 546 278.616 543.966 280.98 540.407C283.345 536.848 283.345 531.763 283.345 531.763L297.059 364.475C297.059 364.475 305.572 366 311.719 364.475C317.867 362.949 323.069 361.424 326.379 356.339C329.69 351.254 337 193 333 186Z" fill="#FED195"/>
<path d="M476.45 186.353C472.45 179.353 403.449 160.172 386.45 186.353C386.45 186.353 394 253 380.923 301C367.846 349 349 383 349 383C349 383 332.687 402.5 321 404L332.686 532.116C333.211 536.624 336.943 540.76 336.943 540.76C336.943 540.76 341.236 544.858 345.455 546.353H380.923H416.864C416.864 546.353 422.066 544.319 424.43 540.76C426.795 537.201 426.795 532.116 426.795 532.116L440.509 364.828C440.509 364.828 449.022 366.353 455.169 364.828C461.317 363.302 466.519 361.777 469.829 356.692C473.14 351.607 480.45 193.353 476.45 186.353Z" fill="#FED195"/>
<ellipse rx="60.5" ry="57.5" transform="matrix(-1 0 0 1 80.5 81.5)" fill="#FED195"/>
<path d="M1.22098 186.34C5.40968 179.347 77.6635 160.184 95.4645 186.34C95.4645 186.34 87.5582 252.924 101.252 300.879C114.946 348.833 134.68 382.801 134.68 382.801C134.68 382.801 151.762 402.283 164 403.781L151.763 531.776C151.213 536.28 147.306 540.412 147.306 540.412C147.306 540.412 142.81 544.506 138.392 546H101.252H63.6165C63.6165 546 58.1692 543.968 55.6932 540.412C53.2172 536.856 53.2172 531.776 53.2172 531.776L38.8563 364.646C38.8563 364.646 29.9427 366.17 23.5051 364.646C17.0675 363.122 11.6202 361.598 8.15381 356.518C4.68739 351.438 -2.96774 193.334 1.22098 186.34Z" fill="#FED195"/>
</svg>
