<svg width="20" height="13" viewBox="0 0 20 13" fill="none" xmlns="http://www.w3.org/2000/svg">
<path d="M5.7061 8.17611H6.61519L6.92967 7.9717C5.80902 7.12809 5.13438 6.03173 5.13438 4.83134C5.13438 2.16295 8.462 0 12.5672 0C16.6723 0 20 2.16295 20 4.83134C20 7.49974 16.6724 9.66269 12.5672 9.66269C10.7204 9.66269 9.03372 9.22414 7.73585 8.49944L7.42137 8.70385V9.29104L1.70385 13L0 11.8925L5.7061 8.17611ZM12.5672 8.17611C15.4088 8.17611 17.713 6.67839 17.713 4.83134C17.713 2.9843 15.4088 1.48658 12.5672 1.48658C9.72556 1.48658 7.42137 2.9843 7.42137 4.83134C7.42137 6.67839 9.72556 8.17611 12.5672 8.17611Z" fill="black"/>
</svg>
