<svg width="10" height="8" viewBox="0 0 10 8" fill="none" xmlns="http://www.w3.org/2000/svg">
<g clip-path="url(#clip0)">
<path d="M6.16667 4.66666H5.98333C5.91438 4.66676 5.85269 4.63234 5.829 4.58052C5.80867 4.53786 5.78683 4.49612 5.76333 4.45479C5.73413 4.40452 5.74746 4.34501 5.79667 4.30599L5.92733 4.20132C6.12131 4.04477 6.12096 3.79231 5.9265 3.63612L5.4555 3.25932C5.26002 3.10386 4.94431 3.10386 4.74883 3.25932L4.61817 3.36372C4.56929 3.40294 4.49502 3.41359 4.43217 3.39039C4.3805 3.37159 4.32833 3.35412 4.27483 3.33706C4.20973 3.31824 4.16642 3.26871 4.16667 3.21332V3.06666C4.16667 2.84574 3.94281 2.66666 3.66667 2.66666H3C2.72385 2.66666 2.5 2.84574 2.5 3.06666V3.21332C2.50013 3.26849 2.4571 3.31784 2.39233 3.33679C2.339 3.35306 2.28683 3.37052 2.23517 3.38932C2.17231 3.41257 2.09802 3.40192 2.04917 3.36266L1.91833 3.25812C1.72288 3.10276 1.40729 3.10276 1.21183 3.25812L0.740833 3.63612C0.5465 3.79251 0.5465 4.04507 0.740833 4.20146L0.871333 4.30599C0.920542 4.34501 0.933875 4.40452 0.904667 4.45479C0.881167 4.49612 0.859333 4.53786 0.838833 4.58066C0.814979 4.63277 0.752688 4.66722 0.683333 4.66666H0.5C0.223854 4.66666 0 4.84574 0 5.06666V5.59999C0 5.82091 0.223854 5.99999 0.5 5.99999H0.683333C0.752292 5.99989 0.813979 6.03431 0.837667 6.08612C0.858 6.12879 0.879833 6.17052 0.903333 6.21186C0.932542 6.26212 0.919208 6.32164 0.87 6.36066L0.739333 6.46532C0.545125 6.62169 0.545125 6.87416 0.739333 7.03052L1.21033 7.40732C1.40581 7.56279 1.72152 7.56279 1.917 7.40732L2.04767 7.30292C2.09654 7.26371 2.17081 7.25306 2.23367 7.27626C2.28533 7.29506 2.3375 7.31252 2.391 7.32959C2.45644 7.34819 2.50013 7.39777 2.5 7.45332V7.59999C2.5 7.82091 2.72385 7.99999 3 7.99999H3.66667C3.94281 7.99999 4.16667 7.82091 4.16667 7.59999V7.45332C4.16654 7.39816 4.20956 7.34881 4.27433 7.32986C4.32767 7.31359 4.37983 7.29612 4.4315 7.27732C4.49435 7.25407 4.56865 7.26472 4.6175 7.30399L4.74833 7.40852C4.94406 7.56364 5.25956 7.56334 5.45483 7.40786L5.92583 7.03106C6.12017 6.87467 6.12017 6.62211 5.92583 6.46572L5.79533 6.36119C5.74613 6.32217 5.73279 6.26266 5.762 6.21239C5.7855 6.17106 5.80733 6.12932 5.82867 6.08652C5.85219 6.03444 5.9141 5.99979 5.98333 5.99999H6.16667C6.44281 5.99999 6.66667 5.82091 6.66667 5.59999V5.06666C6.66667 4.84574 6.44281 4.66666 6.16667 4.66666ZM6.33333 5.59999C6.33333 5.67362 6.25871 5.73332 6.16667 5.73332H5.98333C5.77615 5.73394 5.59073 5.83639 5.51667 5.99119C5.499 6.02852 5.4799 6.06527 5.45933 6.10146C5.37365 6.25279 5.41342 6.43072 5.55933 6.54892L5.68967 6.65332C5.75479 6.70536 5.75485 6.78979 5.68979 6.84189C5.68975 6.84192 5.68971 6.84196 5.68967 6.84199L5.21867 7.21879C5.15358 7.27084 5.04808 7.27084 4.983 7.21879L4.85233 7.11439C4.70465 6.99754 4.48215 6.96572 4.293 7.03439C4.24783 7.05079 4.20183 7.06612 4.1555 7.08026C3.96215 7.13949 3.83417 7.28769 3.83333 7.45332V7.59999C3.83333 7.67362 3.75871 7.73332 3.66667 7.73332H3C2.90796 7.73332 2.83333 7.67362 2.83333 7.59999V7.45332C2.83256 7.28757 2.7045 7.13924 2.511 7.07999C2.46433 7.06586 2.4184 7.05057 2.37317 7.03412C2.184 6.96561 1.9616 6.99742 1.81383 7.11412L1.68333 7.21839C1.61829 7.27049 1.51275 7.27054 1.44763 7.21849C1.44758 7.21846 1.44754 7.21842 1.4475 7.21839L0.9765 6.84199C0.911438 6.78992 0.911438 6.70552 0.9765 6.65346L1.107 6.54892C1.25294 6.43072 1.29269 6.25279 1.207 6.10146C1.1865 6.06532 1.16733 6.02852 1.14967 5.99146C1.07579 5.83661 0.8905 5.73406 0.683333 5.73332H0.5C0.407958 5.73332 0.333333 5.67362 0.333333 5.59999V5.06666C0.333333 4.99302 0.407958 4.93332 0.5 4.93332H0.683333C0.890521 4.93271 1.07594 4.83026 1.15 4.67546C1.16767 4.63812 1.18677 4.60137 1.20733 4.56519C1.29302 4.41386 1.25325 4.23592 1.10733 4.11772L0.976333 4.01332C0.911208 3.96129 0.911146 3.87686 0.976208 3.82476C0.97625 3.82472 0.976292 3.82469 0.976333 3.82466L1.44733 3.44786C1.51242 3.39581 1.61792 3.39581 1.683 3.44786L1.81367 3.55226C1.96135 3.66911 2.18385 3.70092 2.373 3.63226C2.41817 3.61586 2.46417 3.60052 2.5105 3.58639C2.70412 3.52734 2.8324 3.37909 2.83333 3.21332V3.06666C2.83333 2.99302 2.90796 2.93332 3 2.93332H3.66667C3.75871 2.93332 3.83333 2.99302 3.83333 3.06666V3.21332C3.8341 3.37907 3.96217 3.52741 4.15567 3.58666C4.20233 3.60079 4.24827 3.61607 4.2935 3.63252C4.48265 3.70119 4.70515 3.66937 4.85283 3.55252L4.98333 3.44826C5.04867 3.39656 5.15383 3.39656 5.21917 3.44826L5.69017 3.82506C5.75523 3.87712 5.75523 3.96152 5.69017 4.01359L5.55967 4.11812C5.41375 4.23632 5.37398 4.41426 5.45967 4.56559C5.48017 4.60172 5.49933 4.63852 5.517 4.67559C5.59104 4.83027 5.77629 4.93266 5.98333 4.93332H6.16667C6.25871 4.93332 6.33333 4.99302 6.33333 5.06666V5.59999Z" fill="black"/>
<path d="M4.82999 5.28C4.82832 5.248 4.82549 5.21613 4.82066 5.1844C4.81532 5.15026 4.80899 5.1164 4.80016 5.0832C4.79432 5.06146 4.78666 5.04 4.77932 5.0184C4.76999 4.99093 4.75949 4.96386 4.74782 4.9372C4.73966 4.91866 4.73116 4.90026 4.72249 4.882C4.70103 4.8393 4.67649 4.79761 4.64899 4.7572C4.64682 4.75413 4.64549 4.7508 4.64332 4.74773C4.59997 4.686 4.54976 4.62748 4.49332 4.57293C4.48849 4.56813 4.48299 4.5636 4.47799 4.55893C4.45499 4.5372 4.43132 4.51613 4.40649 4.496C4.39349 4.4852 4.37982 4.47506 4.36616 4.46466C4.34949 4.45226 4.33282 4.44 4.31616 4.42826C4.29593 4.41421 4.27532 4.40061 4.25432 4.38746L4.22699 4.3712C3.96909 4.21666 3.65553 4.13321 3.33332 4.13333C3.31666 4.13333 3.29999 4.13533 3.28332 4.13586C3.24782 4.13666 3.21216 4.13826 3.17632 4.1412C3.15749 4.1428 3.13849 4.14453 3.11966 4.14666C3.06532 4.15238 3.01141 4.16045 2.95816 4.1708C2.15564 4.3367 1.67318 4.99166 1.88055 5.63368C2.01722 6.05675 2.43039 6.38701 2.95932 6.496C2.96199 6.496 2.96482 6.49666 2.96766 6.4972C3.02522 6.50868 3.08353 6.5176 3.14232 6.52386C3.18116 6.52773 3.21999 6.52853 3.25899 6.53C3.28499 6.53106 3.30899 6.53413 3.33616 6.53413C3.38366 6.53413 3.43299 6.5316 3.48332 6.5276C3.48866 6.5276 3.49399 6.5264 3.49999 6.52586C3.54049 6.52226 3.58149 6.51746 3.62332 6.5108C3.63999 6.50826 3.65549 6.50493 3.67149 6.502C3.70082 6.49653 3.72999 6.4908 3.75999 6.48373C3.78332 6.47813 3.80599 6.4716 3.82882 6.4652C3.85166 6.4588 3.87532 6.45186 3.89899 6.44466C3.92266 6.43746 3.94249 6.4292 3.96399 6.4212C3.99199 6.41093 4.01982 6.4008 4.04732 6.3888H4.04832C4.20387 6.32218 4.34753 6.23918 4.47549 6.142C4.51005 6.1162 4.54009 6.08676 4.56482 6.05453C4.69491 5.8877 4.78036 5.70111 4.81582 5.50653C4.82049 5.4808 4.82466 5.45506 4.82716 5.4288C4.82949 5.40466 4.83116 5.38066 4.83182 5.35666C4.83182 5.34906 4.83316 5.34186 4.83316 5.33426C4.83332 5.31546 4.83099 5.29813 4.82999 5.28ZM3.04049 4.42933C3.13624 4.41001 3.23457 4.40015 3.33332 4.4C3.38097 4.40023 3.42857 4.4028 3.47582 4.40773C3.48849 4.40893 3.50099 4.4108 3.51349 4.41226C3.54949 4.4168 3.58516 4.42253 3.62032 4.42973C3.63182 4.43213 3.64332 4.43426 3.65466 4.4368C3.74328 4.45726 3.82859 4.486 3.90882 4.5224C3.92166 4.5284 3.93416 4.53466 3.94682 4.54093C3.97316 4.55426 3.99866 4.5676 4.02382 4.5828C4.03732 4.59066 4.05099 4.5984 4.06399 4.6068C4.0967 4.6277 4.12801 4.64995 4.15782 4.67346C4.16966 4.68306 4.18049 4.6936 4.19199 4.7036C4.21116 4.72026 4.22982 4.73733 4.24766 4.75533C4.25999 4.76773 4.27182 4.78053 4.28349 4.79346C4.30016 4.81266 4.31682 4.83266 4.33182 4.85293C4.34016 4.864 4.34849 4.8748 4.35699 4.88613C4.37849 4.91778 4.39764 4.95041 4.41432 4.98386C4.42099 4.9972 4.42666 5.01053 4.43266 5.02386C4.44349 5.0484 4.45282 5.0732 4.46099 5.09826C4.46516 5.1116 4.46982 5.12346 4.47332 5.1364C4.48305 5.17243 4.49011 5.2089 4.49449 5.2456C4.49549 5.25533 4.49549 5.2652 4.49632 5.27493C4.49866 5.3056 4.49932 5.3364 4.49782 5.36733C4.49782 5.3784 4.49666 5.38946 4.49582 5.4004C4.49282 5.43266 4.48766 5.46493 4.48082 5.49733C4.41853 5.77455 4.20339 6.01455 3.89516 6.15066C3.87449 6.15933 3.85416 6.16746 3.83382 6.17493L3.81999 6.18026C3.72316 6.21543 3.62095 6.24018 3.51599 6.25386C3.50866 6.2548 3.50116 6.25586 3.49366 6.25666C3.47282 6.25906 3.45232 6.26106 3.43199 6.26253C3.40516 6.2644 3.37816 6.26546 3.35066 6.26586C3.33899 6.26586 3.32749 6.26586 3.31582 6.26586C3.27639 6.2655 3.23701 6.26355 3.19782 6.26L3.17782 6.25813C3.13199 6.25333 3.08653 6.24648 3.04166 6.2376C2.41745 6.10978 2.04095 5.60135 2.2007 5.10198C2.30626 4.77201 2.62814 4.51425 3.04049 4.42946V4.42933Z" fill="black"/>
<path d="M9.5 2.8H8.97584C8.90594 2.80057 8.84342 2.76535 8.8205 2.71253C8.76882 2.58868 8.70627 2.46788 8.63334 2.35107C8.60238 2.30062 8.61527 2.23997 8.66534 2.20053L9.037 1.9028C9.23209 1.74662 9.23209 1.49352 9.037 1.33733L8.32834 0.771333C8.13311 0.615267 7.81673 0.615267 7.6215 0.771333L7.25 1.0684C7.20077 1.10843 7.12507 1.1188 7.062 1.09413C6.91596 1.03548 6.76492 0.985183 6.61 0.9436C6.54371 0.92545 6.4994 0.875383 6.5 0.819333V0.4C6.5 0.179083 6.27615 0 6 0H5C4.72386 0 4.5 0.179083 4.5 0.4V0.819333C4.50071 0.87525 4.45669 0.925267 4.39067 0.9436C4.23582 0.985167 4.08484 1.03543 3.93884 1.094C3.87577 1.11885 3.79992 1.10853 3.75067 1.0684L3.3785 0.771067C3.18305 0.61545 2.86713 0.61545 2.67167 0.771067L1.96434 1.33693C1.76915 1.49313 1.76915 1.74633 1.96434 1.90253L2.51084 2.34053C2.57694 2.39177 2.68246 2.39043 2.7465 2.33753C2.80898 2.28593 2.80913 2.204 2.74684 2.15227L2.2 1.7144C2.13494 1.66233 2.13494 1.57793 2.2 1.52587L2.90734 0.96C2.97242 0.90795 3.07792 0.90795 3.143 0.96L3.51534 1.25733C3.66598 1.37857 3.89682 1.40887 4.088 1.33253C4.22002 1.27965 4.35652 1.23425 4.4965 1.19667C4.69855 1.14195 4.83421 0.989983 4.83334 0.819333V0.4C4.83334 0.326367 4.90796 0.266667 5 0.266667H6C6.09205 0.266667 6.16667 0.326367 6.16667 0.4V0.819333C6.16582 0.98995 6.30148 1.14187 6.5035 1.19653C6.64355 1.23413 6.78011 1.27957 6.91217 1.33253C7.1034 1.40847 7.33392 1.37813 7.48467 1.2572L7.857 0.96C7.92209 0.90795 8.02759 0.90795 8.09267 0.96L8.8 1.526C8.86496 1.57805 8.86496 1.66235 8.8 1.7144L8.42834 2.01227C8.27694 2.13285 8.23907 2.31743 8.33434 2.4704C8.40044 2.57602 8.45719 2.68522 8.50417 2.7972C8.57252 2.95887 8.7625 3.0674 8.97584 3.06667H9.5C9.59204 3.06667 9.66667 3.12637 9.66667 3.2V4C9.66667 4.07363 9.59204 4.13333 9.5 4.13333H8.97584C8.76257 4.13265 8.57267 4.24118 8.50434 4.4028C8.45734 4.51483 8.40054 4.62408 8.33434 4.72973C8.23925 4.8827 8.27719 5.06718 8.4285 5.18773L8.80017 5.4856C8.86523 5.53767 8.86523 5.62207 8.80017 5.67413L8.0925 6.24C8.02744 6.29197 7.92207 6.29197 7.857 6.24L7.30934 5.8028C7.24529 5.7499 7.13977 5.74857 7.07367 5.7998C7.00755 5.85103 7.00588 5.93545 7.06992 5.98833C7.07125 5.98943 7.07263 5.99053 7.074 5.9916L7.6215 6.4288C7.81673 6.58487 8.13311 6.58487 8.32834 6.4288L9.03567 5.86307C9.23086 5.70687 9.23086 5.45367 9.03567 5.29747L8.6645 5C8.6145 4.9606 8.60156 4.90005 8.63234 4.8496C8.70565 4.73277 8.76852 4.61193 8.8205 4.488C8.84319 4.43497 8.90577 4.39952 8.97584 4.4H9.5C9.77615 4.4 10 4.22092 10 4V3.2C10 2.97908 9.77615 2.8 9.5 2.8Z" fill="black"/>
<path d="M7.032 2.37441C6.18537 1.69852 4.81462 1.69852 3.968 2.37441C3.90406 2.42737 3.90589 2.51179 3.9721 2.56294C4.03668 2.61284 4.13908 2.61284 4.20366 2.56294C4.91481 1.98634 6.07558 1.98012 6.79633 2.54904C7.51708 3.11796 7.52485 4.04657 6.81371 4.62317C6.80796 4.62784 6.80217 4.63247 6.79633 4.63707C6.73012 4.68824 6.72829 4.77264 6.79225 4.82561C6.85621 4.87857 6.96171 4.88004 7.02792 4.82887C7.02929 4.82781 7.03067 4.82672 7.032 4.82561C7.87686 4.14832 7.87686 3.05171 7.032 2.37441Z" fill="black"/>
</g>
<defs>
<clipPath id="clip0">
<rect width="10" height="8" fill="white"/>
</clipPath>
</defs>
</svg>
