<svg width="163" height="64" viewBox="0 0 163 64" fill="none" xmlns="http://www.w3.org/2000/svg">
<path d="M33.4219 18.875V21.8516L29.6016 22.5078V53H24.9844L8.57812 26.6562L8.4375 26.7031V49.3906L12.2578 50.0469V53H0V50.0469L3.82031 49.3906V22.5078L0 21.8516V18.875H8.4375L24.8438 45.1953L24.9844 45.1484V22.5078L21.1641 21.8516V18.875H33.4219Z" fill="white"/>
<path d="M37.0078 40.0859C37.0078 36.3359 38.0234 33.25 40.0547 30.8281C42.0859 28.3906 44.8438 27.1719 48.3281 27.1719C51.8281 27.1719 54.5938 28.3828 56.625 30.8047C58.6719 33.2266 59.6953 36.3203 59.6953 40.0859V40.6016C59.6953 44.3828 58.6797 47.4766 56.6484 49.8828C54.6172 52.2891 51.8594 53.4922 48.375 53.4922C44.8594 53.4922 42.0859 52.2891 40.0547 49.8828C38.0234 47.4609 37.0078 44.3672 37.0078 40.6016V40.0859ZM41.625 40.6016C41.625 43.2891 42.1875 45.5078 43.3125 47.2578C44.4531 49.0078 46.1406 49.8828 48.375 49.8828C50.5625 49.8828 52.2266 49.0078 53.3672 47.2578C54.5078 45.5078 55.0781 43.2891 55.0781 40.6016V40.0859C55.0781 37.4297 54.5078 35.2188 53.3672 33.4531C52.2266 31.6875 50.5469 30.8047 48.3281 30.8047C46.1094 30.8047 44.4375 31.6875 43.3125 33.4531C42.1875 35.2188 41.625 37.4297 41.625 40.0859V40.6016Z" fill="white"/>
<path d="M72 21.5234V27.6406H76.8047V31.0625H72V46.4609C72 47.6484 72.2422 48.4844 72.7266 48.9688C73.2266 49.4531 73.8828 49.6953 74.6953 49.6953C75.1016 49.6953 75.5547 49.6641 76.0547 49.6016C76.5703 49.5234 77 49.4453 77.3438 49.3672L77.9766 52.5312C77.5391 52.8125 76.8984 53.0391 76.0547 53.2109C75.2109 53.3984 74.3672 53.4922 73.5234 53.4922C71.6484 53.4922 70.1562 52.9297 69.0469 51.8047C67.9375 50.6641 67.3828 48.8828 67.3828 46.4609V31.0625H63.375V27.6406H67.3828V21.5234H72Z" fill="white"/>
<path d="M81.5156 50.0469L85.3359 49.3906V31.2734L81.5156 30.6172V27.6406H89.9531V49.3906L93.7734 50.0469V53H81.5156V50.0469ZM89.9531 21.1484H85.3359V16.4375H89.9531V21.1484Z" fill="white"/>
<path d="M112.828 50.0469L116.648 49.3906V20.6562C115.742 20.4375 114.812 20.2656 113.859 20.1406C112.906 20 111.945 19.9297 110.977 19.9297C108.82 19.9297 107.258 20.4141 106.289 21.3828C105.336 22.3516 104.859 23.8281 104.859 25.8125V27.6406H110.742V31.0625H104.859V49.3906L108.68 50.0469V53H96.4219V50.0469L100.242 49.3906V31.0625H96.8672V27.6406H100.242V25.8125C100.242 22.6719 101.156 20.2422 102.984 18.5234C104.828 16.8047 107.375 15.9453 110.625 15.9453C111.969 15.9453 113.297 16.0703 114.609 16.3203C115.922 16.5703 117.445 16.9297 119.18 17.3984H121.266V49.3906L125.086 50.0469V53H112.828V50.0469Z" fill="white"/>
<path d="M153.047 30.6172L150.773 30.9688L141.117 56.8906C140.477 58.5938 139.555 60.0781 138.352 61.3438C137.148 62.6094 135.531 63.2422 133.5 63.2422C133.141 63.2422 132.672 63.1953 132.094 63.1016C131.516 63.0234 131.07 62.9453 130.758 62.8672L131.227 59.2344C131.133 59.2188 131.406 59.2344 132.047 59.2812C132.703 59.3281 133.117 59.3516 133.289 59.3516C134.273 59.3516 135.07 58.9219 135.68 58.0625C136.289 57.2188 136.82 56.2422 137.273 55.1328L138.375 52.5078L130.008 30.9922L127.688 30.6172V27.6406H137.93V30.6172L135.07 31.0859L139.453 43.6016L140.297 46.8359H140.438L145.711 31.0859L142.828 30.6172V27.6406H153.047V30.6172Z" fill="white"/>
<path d="M161.909 0H109.534C109.256 0 108.983 0.110074 108.805 0.323078C108.414 0.788684 108.588 1.45312 109.068 1.7113L121.283 8.28911L121.286 8.29238L124.13 27.2534C124.232 27.9103 125.012 28.2471 125.557 27.8602L137.487 19.3834L137.492 19.3831L145.946 24.033C146.35 24.2546 146.869 24.1328 147.132 23.7552L156.021 10.9767C156.308 10.5641 156.207 9.99689 155.794 9.7099C155.381 9.42279 154.814 9.52475 154.527 9.93732L146.108 22.0403C146.107 22.0421 146.104 22.0427 146.102 22.0416L129.242 12.7685C129.238 12.7667 129.239 12.7617 129.243 12.7604L159.591 2.6442C159.595 2.64287 159.599 2.64747 159.596 2.65086L157.08 6.26757C156.794 6.6788 156.86 7.25933 157.264 7.55552C157.679 7.85923 158.258 7.76041 158.55 7.34167L162.663 1.42963C162.689 1.39246 162.712 1.35213 162.732 1.31132C163.027 0.711668 162.572 0 161.909 0ZM135.712 18.4042C135.715 18.4058 135.715 18.4099 135.713 18.4117L126.217 25.1587C126.213 25.1609 126.209 25.1583 126.21 25.1544L127.697 14.0026C127.697 13.9995 127.7 13.9978 127.703 13.9993L135.712 18.4042ZM150.284 3.82814L126.683 11.6949C126.358 11.8039 126.115 12.0974 126.069 12.4379L124.981 20.5995C124.98 20.6046 124.973 20.6046 124.972 20.5996L123.151 8.45598C123.15 8.45356 123.152 8.45138 123.154 8.45101L150.282 3.81954C150.287 3.81857 150.289 3.82632 150.284 3.82814ZM151.127 1.82876L122.275 6.75473L122.272 6.75425L113.124 1.82839C113.12 1.82621 113.121 1.82004 113.126 1.82004H151.126C151.132 1.82004 151.132 1.82791 151.127 1.82876Z" fill="white"/>
<path d="M118.183 36.4202C117.928 36.4239 117.668 36.4343 117.411 36.451C116.909 36.4835 116.529 36.9163 116.561 37.4178C116.592 37.8994 116.993 38.2693 117.469 38.2693C117.488 38.2693 117.508 38.2687 117.528 38.2673C117.756 38.2527 117.985 38.2435 118.211 38.2401C118.713 38.2326 119.115 37.819 119.107 37.3166C119.1 36.8142 118.684 36.4099 118.183 36.4202Z" fill="white"/>
<path d="M122.656 37.0617C122.184 36.9085 121.688 36.7807 121.183 36.6816C120.69 36.5846 120.211 36.9062 120.115 37.3996C120.018 37.8927 120.339 38.371 120.833 38.4677C121.267 38.5529 121.691 38.6623 122.094 38.793C122.566 38.9459 123.087 38.68 123.24 38.2084C123.395 37.7302 123.133 37.2168 122.656 37.0617Z" fill="white"/>
<path d="M113.181 45.484C113.11 45.069 113.068 44.6411 113.059 44.212C113.047 43.7095 112.629 43.3123 112.128 43.3233C111.625 43.335 111.227 43.7518 111.239 44.2542C111.251 44.772 111.301 45.2892 111.387 45.7915C111.471 46.28 111.949 46.6187 112.437 46.5345C112.933 46.4497 113.266 45.9793 113.181 45.484Z" fill="white"/>
<path d="M117.62 51.1041C117.236 50.9678 116.861 50.7913 116.508 50.5798C116.077 50.3217 115.518 50.4619 115.26 50.8932C115.002 51.3244 115.142 51.8832 115.573 52.1415C116.03 52.4147 116.514 52.6428 117.012 52.8195C117.505 52.9941 118.056 52.7045 118.194 52.2012C118.318 51.7477 118.063 51.2612 117.62 51.1041Z" fill="white"/>
<path d="M118.802 32.9035C118.489 32.5098 117.917 32.444 117.523 32.7563C117.137 33.0627 116.758 33.3883 116.398 33.7244C116.03 34.0669 116.01 34.6428 116.352 35.0105C116.69 35.3732 117.276 35.394 117.638 35.056C117.964 34.7528 118.306 34.4587 118.655 34.1821C119.048 33.8696 119.114 33.2973 118.802 32.9035Z" fill="white"/>
<path d="M114.666 48.9328C114.413 48.6058 114.185 48.2508 113.988 47.8774C113.753 47.4333 113.202 47.2639 112.758 47.4988C112.313 47.7339 112.144 48.2846 112.379 48.7287C112.625 49.1939 112.91 49.6371 113.227 50.0461C113.554 50.4693 114.195 50.5151 114.58 50.143C114.909 49.8249 114.946 49.2944 114.666 48.9328Z" fill="white"/>
<path d="M113.301 39.266C112.839 39.069 112.304 39.2841 112.107 39.7465C111.89 40.256 111.713 40.7576 111.594 41.1966C111.462 41.6817 111.749 42.1814 112.234 42.3131C112.313 42.3346 112.393 42.3449 112.472 42.3449C112.873 42.3449 113.24 42.0781 113.35 41.6728C113.418 41.422 113.548 41.008 113.782 40.4597C113.979 39.9974 113.764 39.4629 113.301 39.266Z" fill="white"/>
<path d="M115.671 35.754C115.274 35.4449 114.703 35.5157 114.394 35.9122C114.089 36.3026 113.798 36.709 113.528 37.12C113.252 37.5399 113.368 38.1042 113.788 38.3803C114.203 38.653 114.776 38.5341 115.048 38.1199C115.292 37.7498 115.555 37.3835 115.829 37.0314C116.138 36.635 116.067 36.0631 115.671 35.754Z" fill="white"/>
<path d="M126.633 39.4487C126.276 39.0778 125.87 38.732 125.427 38.4207C125.016 38.1317 124.448 38.2309 124.159 38.6422C123.87 39.0535 123.97 39.621 124.381 39.91C124.729 40.1544 125.046 40.4241 125.322 40.7115C125.666 41.0686 126.252 41.0795 126.609 40.7355C126.971 40.3867 126.982 39.8107 126.633 39.4487Z" fill="white"/>
<path d="M122.382 51.9871C122.277 51.4956 121.794 51.1829 121.302 51.288C120.922 51.3693 120.525 51.4231 120.12 51.448L120.049 51.452C119.547 51.477 119.16 51.9041 119.185 52.4061C119.209 52.8928 119.611 53.271 120.093 53.271C120.108 53.271 120.124 53.2706 120.139 53.2699L120.232 53.2647C120.727 53.2345 121.215 53.1681 121.683 53.0679C122.175 52.9623 122.488 52.4786 122.382 51.9871Z" fill="white"/>
<path d="M128.588 43.7943C128.545 43.2427 128.444 42.7094 128.288 42.2092C128.138 41.7293 127.628 41.4614 127.148 41.6111C126.669 41.7605 126.401 42.2708 126.55 42.7507C126.666 43.1211 126.741 43.52 126.773 43.9361C126.812 44.4305 127.257 44.8111 127.752 44.7725C128.246 44.7337 128.627 44.2887 128.588 43.7943Z" fill="white"/>
<path d="M127.63 45.7858C127.148 45.6436 126.642 45.9187 126.499 46.4007C126.381 46.8022 126.227 47.196 126.042 47.5713C125.82 48.0221 126.006 48.5677 126.457 48.7895C126.902 49.0087 127.457 48.8194 127.676 48.3746C127.906 47.907 128.097 47.4163 128.245 46.9162C128.387 46.4342 128.112 45.9281 127.63 45.7858Z" fill="white"/>
<path d="M122.508 30.8586C122.294 30.4035 121.752 30.208 121.297 30.4218C120.851 30.6315 120.408 30.8601 119.982 31.1012C119.641 31.2937 119.459 31.6948 119.539 32.0777C119.625 32.4957 120.004 32.8036 120.431 32.8036C120.582 32.8036 120.736 32.7655 120.878 32.6855C121.264 32.4669 121.666 32.2595 122.071 32.0691C122.526 31.8554 122.722 31.3134 122.508 30.8586Z" fill="white"/>
<path d="M125.859 49.6143C125.513 49.2499 124.937 49.2349 124.573 49.581C124.272 49.8666 123.944 50.1247 123.597 50.3484C123.175 50.6211 123.054 51.1843 123.326 51.6065C123.595 52.023 124.168 52.1466 124.585 51.8774C125.026 51.5926 125.443 51.2641 125.826 50.9008C126.19 50.5547 126.205 49.9788 125.859 49.6143Z" fill="white"/>
<path d="M125.909 29.7954C125.779 29.31 125.28 29.0218 124.795 29.1511C124.549 29.2168 124.304 29.287 124.064 29.3598C123.608 29.4988 123.333 29.9834 123.446 30.4464C123.568 30.9473 124.102 31.2509 124.595 31.1007C124.814 31.0339 125.039 30.9696 125.265 30.9094C125.75 30.7797 126.039 30.2809 125.909 29.7954Z" fill="white"/>
<path d="M105.454 60.6749C105.349 60.4705 105.246 60.2616 105.149 60.0541C104.937 59.5987 104.396 59.4016 103.94 59.6139C103.485 59.8261 103.287 60.3675 103.5 60.8231C103.607 61.0527 103.72 61.2836 103.837 61.5094C104.064 61.95 104.622 62.1284 105.063 61.9008C105.509 61.6705 105.685 61.1216 105.454 60.6749Z" fill="white"/>
<path d="M104.247 57.639C104.129 57.2261 104.029 56.8053 103.947 56.3881C103.851 55.8949 103.373 55.5733 102.88 55.6695C102.386 55.7657 102.065 56.2437 102.161 56.737C102.252 57.204 102.365 57.6746 102.496 58.1364C102.631 58.6132 103.143 58.8989 103.62 58.763C104.104 58.6257 104.384 58.1225 104.247 57.639Z" fill="white"/>
<path d="M102.849 51.5852C102.348 51.5542 101.915 51.934 101.883 52.4354C101.86 52.7922 101.848 53.1539 101.848 53.5106C101.848 53.8379 101.836 54.1563 102.052 54.425C102.227 54.6431 102.501 54.7726 102.781 54.7653C103.06 54.7593 103.324 54.6228 103.491 54.4C103.693 54.1301 103.668 53.83 103.668 53.5105C103.668 53.1924 103.679 52.8697 103.699 52.5513C103.731 52.0498 103.35 51.6173 102.849 51.5852Z" fill="white"/>
<path d="M103.837 47.6222C103.358 47.4675 102.846 47.7304 102.691 48.2086C102.545 48.6638 102.415 49.1294 102.306 49.5925C102.191 50.0816 102.494 50.5714 102.984 50.6865C103.466 50.8 103.964 50.4915 104.078 50.0089C104.175 49.5938 104.292 49.1762 104.423 48.7678C104.578 48.2894 104.315 47.7765 103.837 47.6222Z" fill="white"/>
<path d="M108.478 40.9767C108.131 40.613 107.555 40.5995 107.191 40.9464C107.098 41.0352 107.006 41.1255 106.914 41.2172C106.668 41.4631 106.425 41.7231 106.192 41.9901C105.861 42.3684 105.9 42.9434 106.278 43.2742C106.651 43.6005 107.236 43.5613 107.562 43.1881C107.769 42.9516 107.984 42.7215 108.201 42.5043C108.282 42.4228 108.365 42.3424 108.448 42.2634C108.811 41.9162 108.825 41.3403 108.478 40.9767Z" fill="white"/>
<path d="M105.742 44.0083C105.314 43.7451 104.753 43.8788 104.49 44.3068C104.241 44.7121 104.004 45.1332 103.787 45.5584C103.559 46.0061 103.737 46.5541 104.185 46.7824C104.627 47.008 105.184 46.8267 105.409 46.3851C105.604 46.0029 105.816 45.6242 106.04 45.2601C106.303 44.8319 106.17 44.2715 105.742 44.0083Z" fill="white"/>
<path d="M111.345 39.0497C111.087 38.6184 110.528 38.4775 110.097 38.7352C109.877 38.8662 109.658 39.0044 109.445 39.146C109.026 39.424 108.912 39.9887 109.19 40.4074C109.464 40.8205 110.037 40.9368 110.451 40.6626C110.641 40.5369 110.835 40.4141 111.03 40.2977C111.462 40.0399 111.603 39.4812 111.345 39.0497Z" fill="white"/>
</svg>
