<?xml version="1.0" standalone="no"?>
<!DOCTYPE svg PUBLIC "-//W3C//DTD SVG 20010904//EN"
 "http://www.w3.org/TR/2001/REC-SVG-20010904/DTD/svg10.dtd">
<svg version="1.0" xmlns="http://www.w3.org/2000/svg"
 width="161.000000pt" height="165.000000pt" viewBox="0 0 161.000000 165.000000"
 preserveAspectRatio="xMidYMid meet">

<g transform="translate(0.000000,165.000000) scale(0.100000,-0.100000)"
fill="#000000" stroke="none">
<path d="M518 1307 c-24 -13 -45 -36 -58 -62 -19 -39 -20 -61 -20 -351 0 -323
-1 -334 -43 -334 -38 0 -145 -58 -172 -94 -34 -44 -65 -126 -65 -170 0 -64 9
-66 228 -66 196 0 197 0 258 29 80 38 135 101 160 185 9 31 9 31 194 79 57 15
70 24 70 46 0 9 9 36 20 58 11 22 24 60 29 83 6 25 19 48 33 58 82 58 158 160
158 214 0 10 10 22 21 29 40 21 111 93 131 133 25 49 36 149 18 171 -11 13
-72 15 -469 14 -443 -1 -457 -1 -493 -22z m817 -82 c28 -7 44 -14 38 -14 -7
-1 -13 -8 -13 -16 0 -9 -11 -27 -24 -40 -13 -13 -22 -26 -19 -29 3 -3 -8 -8
-23 -12 -16 -4 -38 -13 -49 -19 -15 -10 -54 -11 -155 -5 -165 9 -184 4 -188
-57 -5 -64 16 -73 161 -73 105 0 118 -2 115 -17 -3 -20 -64 -76 -93 -87 -11
-4 -90 -9 -177 -9 -153 -2 -157 -2 -178 -27 -16 -18 -20 -33 -16 -55 10 -49
28 -55 163 -55 68 0 123 -2 123 -5 0 -8 -33 -58 -45 -70 -28 -26 -66 -39 -140
-44 -72 -5 -81 -8 -92 -31 -7 -14 -13 -39 -13 -56 0 -47 -53 -122 -103 -144
-35 -16 -66 -20 -185 -20 l-143 0 18 31 c25 42 90 78 154 86 94 10 89 -11 89
373 0 318 1 339 19 361 l19 24 289 3 c165 2 292 7 297 12 14 14 113 11 171 -5z"/>
</g>
</svg>
